<!-- Lucide's `bluetooth`, strokes outlined: see icons/README.md -->
<svg xmlns="http://www.w3.org/2000/svg" width="24" height="24" viewBox="0 0 24 24" version="1.1">
	<path d="M 11 5.155 C 11 9.251, 10.971 9.284, 8.994 7.494 C 6.077 4.855, 5.238 6.559, 8.004 9.504 L 10.349 12 8.004 14.496 C 5.238 17.441, 6.077 19.145, 8.994 16.506 C 10.971 14.716, 11 14.749, 11 18.845 C 11 21.130, 11.366 23, 11.813 23 C 12.260 23, 13.916 21.653, 15.494 20.007 L 18.361 17.013 16.006 14.507 L 13.651 12 16.006 9.493 L 18.361 6.987 15.494 3.993 C 13.916 2.347, 12.260 1, 11.813 1 C 11.366 1, 11 2.870, 11 5.155 M 13 7 C 13 8.867, 13.267 9.133, 14.200 8.200 C 15.133 7.267, 15.133 6.733, 14.200 5.800 C 13.267 4.867, 13 5.133, 13 7 M 13 17 C 13 18.867, 13.267 19.133, 14.200 18.200 C 15.133 17.267, 15.133 16.733, 14.200 15.800 C 13.267 14.867, 13 15.133, 13 17" stroke="none" fill="black" fill-rule="evenodd"/>
</svg>