<!-- Lucide's `keyboard`, strokes outlined: see icons/README.md -->
<svg xmlns="http://www.w3.org/2000/svg" width="24" height="24" viewBox="0 0 24 24" version="1.1">
	<path d="M 1.435 4.308 C 1.144 5.067, 1.040 9.020, 1.203 13.094 L 1.500 20.500 12 20.500 L 22.500 20.500 22.500 12 L 22.500 3.500 12.232 3.215 C 4.230 2.993, 1.847 3.234, 1.435 4.308 M 3 12 L 3 19 12 19 L 21 19 21 12 L 21 5 12 5 L 3 5 3 12 M 5 8 C 5 8.550, 5.450 9, 6 9 C 6.550 9, 7 8.550, 7 8 C 7 7.450, 6.550 7, 6 7 C 5.450 7, 5 7.450, 5 8 M 9 8 C 9 8.550, 9.450 9, 10 9 C 10.550 9, 11 8.550, 11 8 C 11 7.450, 10.550 7, 10 7 C 9.450 7, 9 7.450, 9 8 M 13 8 C 13 8.550, 13.450 9, 14 9 C 14.550 9, 15 8.550, 15 8 C 15 7.450, 14.550 7, 14 7 C 13.450 7, 13 7.450, 13 8 M 17 8 C 17 8.550, 17.450 9, 18 9 C 18.550 9, 19 8.550, 19 8 C 19 7.450, 18.550 7, 18 7 C 17.450 7, 17 7.450, 17 8 M 7 12 C 7 12.550, 7.450 13, 8 13 C 8.550 13, 9 12.550, 9 12 C 9 11.450, 8.550 11, 8 11 C 7.450 11, 7 11.450, 7 12 M 11 12 C 11 12.550, 11.450 13, 12 13 C 12.550 13, 13 12.550, 13 12 C 13 11.450, 12.550 11, 12 11 C 11.450 11, 11 11.450, 11 12 M 15 12 C 15 12.550, 15.450 13, 16 13 C 16.550 13, 17 12.550, 17 12 C 17 11.450, 16.550 11, 16 11 C 15.450 11, 15 11.450, 15 12 M 6 16 C 6 16.556, 8.667 17, 12 17 C 15.333 17, 18 16.556, 18 16 C 18 15.444, 15.333 15, 12 15 C 8.667 15, 6 15.444, 6 16" stroke="none" fill="black" fill-rule="evenodd"/>
</svg>