<!-- Lucide's `wifi`, strokes outlined: see icons/README.md -->
<svg xmlns="http://www.w3.org/2000/svg" width="24" height="24" viewBox="0 0 24 24" version="1.1">
	<path d="M 5.370 5.440 C 2.328 6.764, 0.370 8.703, 1.218 9.551 C 1.448 9.782, 3.388 9.077, 5.530 7.985 C 7.671 6.893, 10.583 6, 12 6 C 13.417 6, 16.329 6.893, 18.470 7.985 C 20.612 9.077, 22.552 9.782, 22.782 9.551 C 23.659 8.674, 21.625 6.741, 18.410 5.398 C 14.235 3.653, 9.440 3.669, 5.370 5.440 M 5.861 10.914 C 2.775 13.416, 3.898 14.455, 7.601 12.524 C 9.196 11.693, 11.175 11.012, 12 11.012 C 12.825 11.012, 14.804 11.693, 16.399 12.524 C 20.102 14.455, 21.225 13.416, 18.139 10.914 C 15.052 8.411, 8.948 8.411, 5.861 10.914 M 8.160 15.308 C 7.291 16.355, 8.057 16.615, 12 16.615 C 15.943 16.615, 16.709 16.355, 15.840 15.308 C 14.439 13.619, 9.561 13.619, 8.160 15.308 M 11 20 C 11 20.550, 11.450 21, 12 21 C 12.550 21, 13 20.550, 13 20 C 13 19.450, 12.550 19, 12 19 C 11.450 19, 11 19.450, 11 20" stroke="none" fill="black" fill-rule="evenodd"/>
</svg>